<svg
  xmlns="http://www.w3.org/2000/svg"
  width="24"
  height="24"
  viewBox="0 0 24 24"
  fill="none"
  stroke="currentColor"
  stroke-width="2"
  stroke-linecap="round"
  stroke-linejoin="round"
>
  <path d="M 6 13 L 6.01 13" stroke="#1982c4"/>
  <path d="M 6 17 L 6.01 17" stroke="#4267AC"/>
  <path d="M 11 6 L 11 6" stroke="#6a4c93"/>
  <path d="M 11 6 A1 1 0 0 1 12 7" stroke="#6a4c93"/>
  <path d="M 12 7 L 12 17" stroke="#6a4c93"/>
  <path d="M 12 17 A1 1 0 0 1 11 18" stroke="#6a4c93"/>
  <path d="M 11 18 L 11 18" stroke="#6a4c93"/>
  <path d="M 11 18 A1 1 0 0 1 10 17" stroke="#6a4c93"/>
  <path d="M 10 17 L 10 7" stroke="#6a4c93"/>
  <path d="M 10 7 A1 1 0 0 1 11 6" stroke="#6a4c93"/>
  <path d="M 17 6 L 17 6" stroke="#B55379"/>
  <path d="M 17 6 A1 1 0 0 1 18 7" stroke="#B55379"/>
  <path d="M 18 7 L 18 17" stroke="#B55379"/>
  <path d="M 18 17 A1 1 0 0 1 17 18" stroke="#B55379"/>
  <path d="M 17 18 L 17 18" stroke="#B55379"/>
  <path d="M 17 18 A1 1 0 0 1 16 17" stroke="#B55379"/>
  <path d="M 16 17 L 16 7" stroke="#B55379"/>
  <path d="M 16 7 A1 1 0 0 1 17 6" stroke="#B55379"/>
  <path d="M 4 2 L 20 2" stroke="#FF595E"/>
  <path d="M 20 2 A2 2 0 0 1 22 4" stroke="#FF595E"/>
  <path d="M 22 4 L 22 20" stroke="#FF595E"/>
  <path d="M 22 20 A2 2 0 0 1 20 22" stroke="#FF595E"/>
  <path d="M 20 22 L 4 22" stroke="#FF595E"/>
  <path d="M 4 22 A2 2 0 0 1 2 20" stroke="#FF595E"/>
  <path d="M 2 20 L 2 4" stroke="#FF595E"/>
  <path d="M 2 4 A2 2 0 0 1 4 2" stroke="#FF595E"/>
</svg>