<svg class="lucide lucide-wifi-cog-icon lucide-wifi-cog" fill="none" stroke="currentColor" stroke-linecap="round" stroke-linejoin="round" stroke-width="2" version="1.1" viewBox="0 0 24 24" xmlns="http://www.w3.org/2000/svg">
  <path d="m2 7.82a15 15 0 0120 0"/>
  <path d="m5 11.858c.19104-.18712.38821-.36536.59091-.53461s.41094-.32952.62414-.48071c.2132-.1512.43136-.29332.65391-.42628.22255-.13296.44948-.25676.68021-.37131.23073-.11455.46527-.21985.70304-.3158s.47876-.18257.7224-.25976c.24364-.077185.48993-.14494.73828-.20317.24836-.058233.49879-.10695.7507-.14605.25192-.039102.50533-.068594.75966-.088386.25432-.019792.50956-.029883.76514-.030185.25557-.0003016.51148.00919.76715.028555.25566.019368.51109.048616.76569.087833.2546.039217.50838.088403.76076.14765.25238.059245.50302.12855.75202.208"/>
  <path d="m8.5 15.429a5 5 0 012.413-1.31"/>
  <rect x="14" y="17" width="8" height="5" rx="1"/>
  <path d="m20 17v-2a2 2 0 10-4 0v2"/>
</svg>
