<svg
  xmlns="http://www.w3.org/2000/svg"
  width="24"
  height="24"
  viewBox="0 0 24 24"
  fill="none"
  stroke="currentColor"
  stroke-width="2"
  stroke-linecap="round"
  stroke-linejoin="round"
>
  <path d="M 12 13 L 8.5 16.5" stroke="#1982c4"/>
  <path d="M 12 8 L 12 13" stroke="#4267AC"/>
  <path d="M 12 13 L 15.6 16.6" stroke="#6a4c93"/>
  <path d="M 12 2 A3 3 0 0 1 15 5" stroke="#6a4c93"/>
  <path d="M 15 5 A3 3 0 0 1 12 8" stroke="#6a4c93"/>
  <path d="M 12 8 A3 3 0 0 1 9 5" stroke="#6a4c93"/>
  <path d="M 9 5 A3 3 0 0 1 12 2" stroke="#6a4c93"/>
  <path d="M 18 16 A3 3 0 0 1 21 19" stroke="#B55379"/>
  <path d="M 21 19 A3 3 0 0 1 18 22" stroke="#B55379"/>
  <path d="M 18 22 A3 3 0 0 1 15 19" stroke="#B55379"/>
  <path d="M 15 19 A3 3 0 0 1 18 16" stroke="#B55379"/>
  <path d="M 6 16.1 A3 3 0 0 1 9 19.1" stroke="#FF595E"/>
  <path d="M 9 19.1 A3 3 0 0 1 6 22.1" stroke="#FF595E"/>
  <path d="M 6 22.1 A3 3 0 0 1 3 19.1" stroke="#FF595E"/>
  <path d="M 3 19.1 A3 3 0 0 1 6 16.1" stroke="#FF595E"/>
</svg>