<svg
  xmlns="http://www.w3.org/2000/svg"
  width="24"
  height="24"
  viewBox="0 0 24 24"
  fill="none"
  stroke="currentColor"
  stroke-width="2"
  stroke-linecap="round"
  stroke-linejoin="round"
>
  <path d="M 18 10 L 22 10" stroke="#1982c4"/>
  <path d="M 22 10 L 18 13" stroke="#4267AC"/>
  <path d="M 18 17 L 22 17" stroke="#6a4c93"/>
  <path d="M 22 17 L 18 20" stroke="#B55379"/>
  <path d="M 18 3 L 22 3" stroke="#FF595E"/>
  <path d="M 22 3 L 18 6" stroke="#FF7655"/>
  <path d="M 6 10 L 2 10" stroke="#ff924c"/>
  <path d="M 2 10 L 6 13" stroke="#FFAE43"/>
  <path d="M 6 17 L 2 17" stroke="#ffca3a"/>
  <path d="M 2 17 L 6 20" stroke="#C5CA30"/>
  <path d="M 6 3 L 2 3" stroke="#8ac926"/>
  <path d="M 2 3 L 6 6" stroke="#52A675"/>
  <path d="M 12 11 A1 1 0 0 1 13 12" stroke="#ff924c"/>
  <path d="M 13 12 A1 1 0 0 1 12 13" stroke="#ff924c"/>
  <path d="M 12 13 A1 1 0 0 1 11 12" stroke="#ff924c"/>
  <path d="M 11 12 A1 1 0 0 1 12 11" stroke="#ff924c"/>
  <path d="M 12 17 A1 1 0 0 1 13 18" stroke="#FFAE43"/>
  <path d="M 13 18 A1 1 0 0 1 12 19" stroke="#FFAE43"/>
  <path d="M 12 19 A1 1 0 0 1 11 18" stroke="#FFAE43"/>
  <path d="M 11 18 A1 1 0 0 1 12 17" stroke="#FFAE43"/>
  <path d="M 12 5 A1 1 0 0 1 13 6" stroke="#ffca3a"/>
  <path d="M 13 6 A1 1 0 0 1 12 7" stroke="#ffca3a"/>
  <path d="M 12 7 A1 1 0 0 1 11 6" stroke="#ffca3a"/>
  <path d="M 11 6 A1 1 0 0 1 12 5" stroke="#ffca3a"/>
  <path d="M 8 2 L 16 2" stroke="#C5CA30"/>
  <path d="M 16 2 A2 2 0 0 1 18 4" stroke="#C5CA30"/>
  <path d="M 18 4 L 18 20" stroke="#C5CA30"/>
  <path d="M 18 20 A2 2 0 0 1 16 22" stroke="#C5CA30"/>
  <path d="M 16 22 L 8 22" stroke="#C5CA30"/>
  <path d="M 8 22 A2 2 0 0 1 6 20" stroke="#C5CA30"/>
  <path d="M 6 20 L 6 4" stroke="#C5CA30"/>
  <path d="M 6 4 A2 2 0 0 1 8 2" stroke="#C5CA30"/>
</svg>