<svg
  xmlns="http://www.w3.org/2000/svg"
  width="24"
  height="24"
  viewBox="0 0 24 24"
  fill="none"
  stroke="currentColor"
  stroke-width="2"
  stroke-linecap="round"
  stroke-linejoin="round"
>
  <path d="M 12 12 L 12.01 12" stroke="#1982c4"/>
  <path d="M 16 12 L 16.01 12" stroke="#4267AC"/>
  <path d="M 8 12 L 8.01 12" stroke="#6a4c93"/>
  <path d="M 8 2 L 16 2" stroke="#B55379"/>
  <path d="M 16 2 A4 4 0 0 1 20 6" stroke="#B55379"/>
  <path d="M 20 6 L 20 18" stroke="#B55379"/>
  <path d="M 20 18 A4 4 0 0 1 16 22" stroke="#B55379"/>
  <path d="M 16 22 L 8 22" stroke="#B55379"/>
  <path d="M 8 22 A4 4 0 0 1 4 18" stroke="#B55379"/>
  <path d="M 4 18 L 4 6" stroke="#B55379"/>
  <path d="M 4 6 A4 4 0 0 1 8 2" stroke="#B55379"/>
</svg>