<svg
  xmlns="http://www.w3.org/2000/svg"
  width="24"
  height="24"
  viewBox="0 0 24 24"
  fill="none"
  stroke="currentColor"
  stroke-width="2"
  stroke-linecap="round"
  stroke-linejoin="round"
>
  <path d="M 18.997 2.997 C 21.738 5.923 21.585 8.951 18.997 12.003" stroke="#1982c4"/>
  <path d="M 9 16 L 9.01 16" stroke="#4267AC"/>
  <path d="M 9 6 A2 2 0 0 1 11 8" stroke="#6a4c93"/>
  <path d="M 11 8 A2 2 0 0 1 9 10" stroke="#6a4c93"/>
  <path d="M 9 10 A2 2 0 0 1 7 8" stroke="#6a4c93"/>
  <path d="M 7 8 A2 2 0 0 1 9 6" stroke="#6a4c93"/>
  <path d="M 5 2 L 13 2" stroke="#B55379"/>
  <path d="M 13 2 A2 2 0 0 1 15 4" stroke="#B55379"/>
  <path d="M 15 4 L 15 20" stroke="#B55379"/>
  <path d="M 15 20 A2 2 0 0 1 13 22" stroke="#B55379"/>
  <path d="M 13 22 L 5 22" stroke="#B55379"/>
  <path d="M 5 22 A2 2 0 0 1 3 20" stroke="#B55379"/>
  <path d="M 3 20 L 3 4" stroke="#B55379"/>
  <path d="M 3 4 A2 2 0 0 1 5 2" stroke="#B55379"/>
</svg>