<svg fill="currentColor" version="1.1" viewBox="0 0 24 24" xmlns="http://www.w3.org/2000/svg">
  <path d="m12 1c-6.0633 0-11 4.9367-11 11 0 6.0633 4.9367 11 11 11 6.0633 0 11-4.9367 11-11 0-6.0633-4.9367-11-11-11zm0 2c4.9824 0 9 4.0176 9 9 0 4.9824-4.0176 9-9 9-4.9824 0-9-4.0176-9-9 0-4.9824 4.0176-9 9-9zm0 2c-3.8541 0-7 3.1459-7 7 0 3.8541 3.1459 7 7 7 3.8541 0 7-3.1459 7-7 0-3.8541-3.1459-7-7-7zm0 2c2.7733 0 5 2.2267 5 5 0 2.7733-2.2267 5-5 5-2.7733 0-5-2.2267-5-5 0-2.7733 2.2267-5 5-5z"/>
</svg>
