<svg
  xmlns="http://www.w3.org/2000/svg"
  width="24"
  height="24"
  viewBox="0 0 24 24"
  fill="none"
  stroke="currentColor"
  stroke-width="2"
  stroke-linecap="round"
  stroke-linejoin="round"
>
  <path d="M 10 10 L 10.01 10" stroke="#1982c4"/>
  <path d="M 14 10 L 14.01 10" stroke="#4267AC"/>
  <path d="M 18 10 L 18.01 10" stroke="#6a4c93"/>
  <path d="M 6 10 L 6.01 10" stroke="#B55379"/>
  <path d="M 6 21 L 18 21" stroke="#FF595E"/>
  <path d="M 4 3 L 20 3" stroke="#FF7655"/>
  <path d="M 20 3 A2 2 0 0 1 22 5" stroke="#FF7655"/>
  <path d="M 22 5 L 22 15" stroke="#FF7655"/>
  <path d="M 22 15 A2 2 0 0 1 20 17" stroke="#FF7655"/>
  <path d="M 20 17 L 4 17" stroke="#FF7655"/>
  <path d="M 4 17 A2 2 0 0 1 2 15" stroke="#FF7655"/>
  <path d="M 2 15 L 2 5" stroke="#FF7655"/>
  <path d="M 2 5 A2 2 0 0 1 4 3" stroke="#FF7655"/>
</svg>