<svg
  xmlns="http://www.w3.org/2000/svg"
  width="24"
  height="24"
  viewBox="0 0 24 24"
  fill="none"
  stroke="currentColor"
  stroke-width="2"
  stroke-linecap="round"
  stroke-linejoin="round"
>
  <path d="M 12 8 A4 4 0 0 1 16 12" stroke="#1982c4"/>
  <path d="M 16 12 A4 4 0 0 1 12 16" stroke="#1982c4"/>
  <path d="M 12 16 A4 4 0 0 1 8 12" stroke="#1982c4"/>
  <path d="M 8 12 A4 4 0 0 1 12 8" stroke="#1982c4"/>
  <path d="M 6 2 L 18 2" stroke="#4267AC"/>
  <path d="M 18 2 A4 4 0 0 1 22 6" stroke="#4267AC"/>
  <path d="M 22 6 L 22 18" stroke="#4267AC"/>
  <path d="M 22 18 A4 4 0 0 1 18 22" stroke="#4267AC"/>
  <path d="M 18 22 L 6 22" stroke="#4267AC"/>
  <path d="M 6 22 A4 4 0 0 1 2 18" stroke="#4267AC"/>
  <path d="M 2 18 L 2 6" stroke="#4267AC"/>
  <path d="M 2 6 A4 4 0 0 1 6 2" stroke="#4267AC"/>
</svg>