<svg
  xmlns="http://www.w3.org/2000/svg"
  width="24"
  height="24"
  viewBox="0 0 24 24"
  fill="none"
  stroke="currentColor"
  stroke-width="2"
  stroke-linecap="round"
  stroke-linejoin="round"
>
  <path d="M 15 14 L 21 14" stroke="#1982c4"/>
  <path d="M 21 14 A1 1 0 0 1 22 15" stroke="#1982c4"/>
  <path d="M 22 15 L 22 21" stroke="#1982c4"/>
  <path d="M 22 21 A1 1 0 0 1 21 22" stroke="#1982c4"/>
  <path d="M 21 22 L 15 22" stroke="#1982c4"/>
  <path d="M 15 22 A1 1 0 0 1 14 21" stroke="#1982c4"/>
  <path d="M 14 21 L 14 15" stroke="#1982c4"/>
  <path d="M 14 15 A1 1 0 0 1 15 14" stroke="#1982c4"/>
  <path d="M 15 2 L 21 2" stroke="#4267AC"/>
  <path d="M 21 2 A1 1 0 0 1 22 3" stroke="#4267AC"/>
  <path d="M 22 3 L 22 9" stroke="#4267AC"/>
  <path d="M 22 9 A1 1 0 0 1 21 10" stroke="#4267AC"/>
  <path d="M 21 10 L 15 10" stroke="#4267AC"/>
  <path d="M 15 10 A1 1 0 0 1 14 9" stroke="#4267AC"/>
  <path d="M 14 9 L 14 3" stroke="#4267AC"/>
  <path d="M 14 3 A1 1 0 0 1 15 2" stroke="#4267AC"/>
  <path d="M 3 14 L 9 14" stroke="#6a4c93"/>
  <path d="M 9 14 A1 1 0 0 1 10 15" stroke="#6a4c93"/>
  <path d="M 10 15 L 10 21" stroke="#6a4c93"/>
  <path d="M 10 21 A1 1 0 0 1 9 22" stroke="#6a4c93"/>
  <path d="M 9 22 L 3 22" stroke="#6a4c93"/>
  <path d="M 3 22 A1 1 0 0 1 2 21" stroke="#6a4c93"/>
  <path d="M 2 21 L 2 15" stroke="#6a4c93"/>
  <path d="M 2 15 A1 1 0 0 1 3 14" stroke="#6a4c93"/>
  <path d="M 3 2 L 9 2" stroke="#B55379"/>
  <path d="M 9 2 A1 1 0 0 1 10 3" stroke="#B55379"/>
  <path d="M 10 3 L 10 9" stroke="#B55379"/>
  <path d="M 10 9 A1 1 0 0 1 9 10" stroke="#B55379"/>
  <path d="M 9 10 L 3 10" stroke="#B55379"/>
  <path d="M 3 10 A1 1 0 0 1 2 9" stroke="#B55379"/>
  <path d="M 2 9 L 2 3" stroke="#B55379"/>
  <path d="M 2 3 A1 1 0 0 1 3 2" stroke="#B55379"/>
</svg>