<svg
  xmlns="http://www.w3.org/2000/svg"
  width="24"
  height="24"
  viewBox="0 0 24 24"
  fill="none"
  stroke="currentColor"
  stroke-width="2"
  stroke-linecap="round"
  stroke-linejoin="round"
>
  <path d="M 10 18 L 10.01 18" stroke="#1982c4"/>
  <path d="M 14 14 L 18 14" stroke="#4267AC"/>
  <path d="M 14 18 L 14.01 18" stroke="#6a4c93"/>
  <path d="M 18 18 L 18.01 18" stroke="#B55379"/>
  <path d="M 19 4 L 19 2" stroke="#FF595E"/>
  <path d="M 5 4 L 5 2" stroke="#FF7655"/>
  <path d="M 6 14 L 10 14" stroke="#ff924c"/>
  <path d="M 6 18 L 6.01 18" stroke="#FFAE43"/>
  <path d="M 4 4 L 20 4" stroke="#ffca3a"/>
  <path d="M 20 4 A2 2 0 0 1 22 6" stroke="#ffca3a"/>
  <path d="M 22 6 L 22 20" stroke="#ffca3a"/>
  <path d="M 22 20 A2 2 0 0 1 20 22" stroke="#ffca3a"/>
  <path d="M 20 22 L 4 22" stroke="#ffca3a"/>
  <path d="M 4 22 A2 2 0 0 1 2 20" stroke="#ffca3a"/>
  <path d="M 2 20 L 2 6" stroke="#ffca3a"/>
  <path d="M 2 6 A2 2 0 0 1 4 4" stroke="#ffca3a"/>
  <path d="M 7 8 L 17 8" stroke="#C5CA30"/>
  <path d="M 17 8 A1 1 0 0 1 18 9" stroke="#C5CA30"/>
  <path d="M 18 9 L 18 9" stroke="#C5CA30"/>
  <path d="M 18 9 A1 1 0 0 1 17 10" stroke="#C5CA30"/>
  <path d="M 17 10 L 7 10" stroke="#C5CA30"/>
  <path d="M 7 10 A1 1 0 0 1 6 9" stroke="#C5CA30"/>
  <path d="M 6 9 L 6 9" stroke="#C5CA30"/>
  <path d="M 6 9 A1 1 0 0 1 7 8" stroke="#C5CA30"/>
</svg>