<svg
  xmlns="http://www.w3.org/2000/svg"
  width="24"
  height="24"
  viewBox="0 0 24 24"
  fill="none"
  stroke="currentColor"
  stroke-width="2"
  stroke-linecap="round"
  stroke-linejoin="round"
>
  <path d="M 10 8 L 10.01 8" stroke="#1982c4"/>
  <path d="M 14 12 L 18 12" stroke="#4267AC"/>
  <path d="M 14 8 L 14.01 8" stroke="#6a4c93"/>
  <path d="M 18 8 L 18.01 8" stroke="#B55379"/>
  <path d="M 19 4 L 19 2" stroke="#FF595E"/>
  <path d="M 5 4 L 5 2" stroke="#FF7655"/>
  <path d="M 6 12 L 10 12" stroke="#ff924c"/>
  <path d="M 6 8 L 6.01 8" stroke="#FFAE43"/>
  <path d="M 4 4 L 20 4" stroke="#ffca3a"/>
  <path d="M 20 4 A2 2 0 0 1 22 6" stroke="#ffca3a"/>
  <path d="M 22 6 L 22 20" stroke="#ffca3a"/>
  <path d="M 22 20 A2 2 0 0 1 20 22" stroke="#ffca3a"/>
  <path d="M 20 22 L 4 22" stroke="#ffca3a"/>
  <path d="M 4 22 A2 2 0 0 1 2 20" stroke="#ffca3a"/>
  <path d="M 2 20 L 2 6" stroke="#ffca3a"/>
  <path d="M 2 6 A2 2 0 0 1 4 4" stroke="#ffca3a"/>
  <path d="M 7 16 L 17 16" stroke="#C5CA30"/>
  <path d="M 17 16 A1 1 0 0 1 18 17" stroke="#C5CA30"/>
  <path d="M 18 17 L 18 17" stroke="#C5CA30"/>
  <path d="M 18 17 A1 1 0 0 1 17 18" stroke="#C5CA30"/>
  <path d="M 17 18 L 7 18" stroke="#C5CA30"/>
  <path d="M 7 18 A1 1 0 0 1 6 17" stroke="#C5CA30"/>
  <path d="M 6 17 L 6 17" stroke="#C5CA30"/>
  <path d="M 6 17 A1 1 0 0 1 7 16" stroke="#C5CA30"/>
</svg>