<svg
  xmlns="http://www.w3.org/2000/svg"
  width="24"
  height="24"
  viewBox="0 0 24 24"
  fill="none"
  stroke="currentColor"
  stroke-width="2"
  stroke-linecap="round"
  stroke-linejoin="round"
>
  <path d="M 2 12 L 22 12" stroke="#1982c4"/>
  <path d="M 22 12 A10 10 0 1 1 12 2" stroke="#4267AC"/>
  <path d="M 12 2 A14.5 14.5 0 0 0 12 22" stroke="#6a4c93"/>
  <path d="M 12 22 A14.5 14.5 0 0 0 16 12" stroke="#B55379"/>
  <path d="M 20 2 L 20 4" stroke="#FF595E"/>
  <path d="M 20 4 L 22 4" stroke="#FF7655"/>
  <path d="M 21.5 2.5 L 20 4" stroke="#ff924c"/>
  <path d="M 17 2 L 21 2" stroke="#B55379"/>
  <path d="M 21 2 A1 1 0 0 1 22 3" stroke="#B55379"/>
  <path d="M 22 3 L 22 7" stroke="#B55379"/>
  <path d="M 22 7 A1 1 0 0 1 21 8" stroke="#B55379"/>
  <path d="M 21 8 L 17 8" stroke="#B55379"/>
  <path d="M 17 8 A1 1 0 0 1 16 7" stroke="#B55379"/>
  <path d="M 16 7 L 16 3" stroke="#B55379"/>
  <path d="M 16 3 A1 1 0 0 1 17 2" stroke="#B55379"/>
</svg>