<svg
  xmlns="http://www.w3.org/2000/svg"
  width="24"
  height="24"
  viewBox="0 0 24 24"
  fill="none"
  stroke="currentColor"
  stroke-width="2"
  stroke-linecap="round"
  stroke-linejoin="round"
>
  <path d="M 11 12 L 17 12" stroke="#1982c4"/>
  <path d="M 17 12 L 17 7" stroke="#4267AC"/>
  <path d="M 17 7 L 11 7" stroke="#6a4c93"/>
  <path d="M 11 7 L 11 17" stroke="#B55379"/>
  <path d="M 7 7 L 7 17" stroke="#FF595E"/>
  <path d="M 5 3 L 19 3" stroke="#6a4c93"/>
  <path d="M 19 3 A2 2 0 0 1 21 5" stroke="#6a4c93"/>
  <path d="M 21 5 L 21 19" stroke="#6a4c93"/>
  <path d="M 21 19 A2 2 0 0 1 19 21" stroke="#6a4c93"/>
  <path d="M 19 21 L 5 21" stroke="#6a4c93"/>
  <path d="M 5 21 A2 2 0 0 1 3 19" stroke="#6a4c93"/>
  <path d="M 3 19 L 3 5" stroke="#6a4c93"/>
  <path d="M 3 5 A2 2 0 0 1 5 3" stroke="#6a4c93"/>
</svg>