<svg
  xmlns="http://www.w3.org/2000/svg"
  width="24"
  height="24"
  viewBox="0 0 24 24"
  fill="none"
  stroke="currentColor"
  stroke-width="2"
  stroke-linecap="round"
  stroke-linejoin="round"
>
  <path d="M 12 12 L 12.01 12" stroke="#1982c4"/>
  <path d="M 12 17 L 12.01 17" stroke="#4267AC"/>
  <path d="M 12 7 L 12.01 7" stroke="#6a4c93"/>
  <path d="M 17 11 L 20 11" stroke="#B55379"/>
  <path d="M 20 11 L 17 13" stroke="#FF595E"/>
  <path d="M 17 16 L 20 16" stroke="#FF7655"/>
  <path d="M 20 16 L 17 18" stroke="#ff924c"/>
  <path d="M 17 6 L 20 6" stroke="#FFAE43"/>
  <path d="M 20 6 L 17 8" stroke="#ffca3a"/>
  <path d="M 7 11 L 4 11" stroke="#C5CA30"/>
  <path d="M 4 11 L 7 13" stroke="#8ac926"/>
  <path d="M 7 16 L 4 16" stroke="#52A675"/>
  <path d="M 4 16 L 7 18" stroke="#1982c4"/>
  <path d="M 7 6 L 4 6" stroke="#4267AC"/>
  <path d="M 4 6 L 7 8" stroke="#6a4c93"/>
  <path d="M 9 3 L 15 3" stroke="#C5CA30"/>
  <path d="M 15 3 A2 2 0 0 1 17 5" stroke="#C5CA30"/>
  <path d="M 17 5 L 17 19" stroke="#C5CA30"/>
  <path d="M 17 19 A2 2 0 0 1 15 21" stroke="#C5CA30"/>
  <path d="M 15 21 L 9 21" stroke="#C5CA30"/>
  <path d="M 9 21 A2 2 0 0 1 7 19" stroke="#C5CA30"/>
  <path d="M 7 19 L 7 5" stroke="#C5CA30"/>
  <path d="M 7 5 A2 2 0 0 1 9 3" stroke="#C5CA30"/>
</svg>