<svg
  xmlns="http://www.w3.org/2000/svg"
  width="24"
  height="24"
  viewBox="0 0 24 24"
  fill="none"
  stroke="currentColor"
  stroke-width="2"
  stroke-linecap="round"
  stroke-linejoin="round"
>
  <path d="M 6 7 L 18 7" stroke="#1982c4"/>
  <path d="M 18 7 L 18 16" stroke="#4267AC"/>
  <path d="M 4 3 L 20 3" stroke="#4267AC"/>
  <path d="M 20 3 A2 2 0 0 1 22 5" stroke="#4267AC"/>
  <path d="M 22 5 L 22 18" stroke="#4267AC"/>
  <path d="M 22 18 A2 2 0 0 1 20 20" stroke="#4267AC"/>
  <path d="M 20 20 L 4 20" stroke="#4267AC"/>
  <path d="M 4 20 A2 2 0 0 1 2 18" stroke="#4267AC"/>
  <path d="M 2 18 L 2 5" stroke="#4267AC"/>
  <path d="M 2 5 A2 2 0 0 1 4 3" stroke="#4267AC"/>
  <path d="M 7 11 L 13 11" stroke="#6a4c93"/>
  <path d="M 13 11 A1 1 0 0 1 14 12" stroke="#6a4c93"/>
  <path d="M 14 12 L 14 15" stroke="#6a4c93"/>
  <path d="M 14 15 A1 1 0 0 1 13 16" stroke="#6a4c93"/>
  <path d="M 13 16 L 7 16" stroke="#6a4c93"/>
  <path d="M 7 16 A1 1 0 0 1 6 15" stroke="#6a4c93"/>
  <path d="M 6 15 L 6 12" stroke="#6a4c93"/>
  <path d="M 6 12 A1 1 0 0 1 7 11" stroke="#6a4c93"/>
</svg>