<svg
  xmlns="http://www.w3.org/2000/svg"
  width="24"
  height="24"
  viewBox="0 0 24 24"
  fill="none"
  stroke="currentColor"
  stroke-width="2"
  stroke-linecap="round"
  stroke-linejoin="round"
>
  <path d="M 12 20 C 11.816 20.853 11.099 21.48 10.293 21.771" stroke="#1982c4"/>
  <path d="M 10.293 21.771 C 9.449 22.076 8.547 22 7.668 22" stroke="#4267AC"/>
  <path d="M 7.668 22 L 3 22" stroke="#6a4c93"/>
  <path d="M 8 2 L 16 2" stroke="#B55379"/>
  <path d="M 16 2 L 16 7" stroke="#FF595E"/>
  <path d="M 16 7 L 19 7" stroke="#FF7655"/>
  <path d="M 19 7 L 19 12" stroke="#ff924c"/>
  <path d="M 19 12 L 16 12" stroke="#FFAE43"/>
  <path d="M 16 12 L 13.013 16" stroke="#ffca3a"/>
  <path d="M 13.013 16 L 10.986 16" stroke="#C5CA30"/>
  <path d="M 10.986 16 L 8 12" stroke="#8ac926"/>
  <path d="M 8 12 L 5 12" stroke="#52A675"/>
  <path d="M 5 12 L 5 7" stroke="#1982c4"/>
  <path d="M 5 7 L 8 7" stroke="#4267AC"/>
  <path d="M 8 7 L 8 2" stroke="#6a4c93"/>
</svg>