<svg
  xmlns="http://www.w3.org/2000/svg"
  width="24"
  height="24"
  viewBox="0 0 24 24"
  fill="none"
  stroke="currentColor"
  stroke-width="2"
  stroke-linecap="round"
  stroke-linejoin="round"
>
  <path d="M 12 2 L 12 22" stroke="#1982c4"/>
  <path d="M 20 13 C 20 18 16.5 20.5 12.34 21.95" stroke="#4267AC"/>
  <path d="M 12.34 21.95 A1 1 0 0 1 11.67 21.94" stroke="#6a4c93"/>
  <path d="M 11.67 21.94 C 7.5 20.5 4 18 4 13" stroke="#B55379"/>
  <path d="M 4 13 L 4 6" stroke="#FF595E"/>
  <path d="M 4 6 A1 1 0 0 1 5 5" stroke="#FF7655"/>
  <path d="M 5 5 C 7 5 9.5 3.8 11.24 2.28" stroke="#ff924c"/>
  <path d="M 11.24 2.28 A1.17 1.17 0 0 1 12.76 2.28" stroke="#FFAE43"/>
  <path d="M 12.76 2.28 C 14.51 3.81 17 5 19 5" stroke="#ffca3a"/>
  <path d="M 19 5 A1 1 0 0 1 20 6" stroke="#C5CA30"/>
  <path d="M 20 6 L 20 13" stroke="#8ac926"/>
  <path d="M 4 12 L 20 12" stroke="#52A675"/>
</svg>