<svg
  xmlns="http://www.w3.org/2000/svg"
  width="24"
  height="24"
  viewBox="0 0 24 24"
  fill="none"
  stroke="currentColor"
  stroke-width="2"
  stroke-linecap="round"
  stroke-linejoin="round"
>
  <path d="M 12 7 L 12 12" stroke="#1982c4"/>
  <path d="M 12 12 L 15.5 15.5" stroke="#4267AC"/>
  <path d="M 21 12 A9 9 0 0 1 12 21" stroke="#6a4c93"/>
  <path d="M 12 21 A9.75 9.75 0 0 1 5.26 18.26" stroke="#B55379"/>
  <path d="M 5.26 18.26 L 3 16" stroke="#FF595E"/>
  <path d="M 21 3 L 21 8" stroke="#FF7655"/>
  <path d="M 21 8 L 16 8" stroke="#ff924c"/>
  <path d="M 3 12 A9 9 0 0 1 12 3" stroke="#FFAE43"/>
  <path d="M 12 3 A9.75 9.75 0 0 1 18.74 5.74" stroke="#ffca3a"/>
  <path d="M 18.74 5.74 L 21 8" stroke="#C5CA30"/>
  <path d="M 8 16 L 3 16" stroke="#8ac926"/>
  <path d="M 3 16 L 3 21" stroke="#52A675"/>
</svg>